<svg xmlns="http://www.w3.org/2000/svg" width="400" height="300" viewBox="0 0 400 300">
  <!-- Dark background with gradient -->
  <defs>
    <linearGradient id="bgGradient" x1="0%" y1="0%" x2="100%" y2="100%">
      <stop offset="0%" style="stop-color:#0a1a0f;stop-opacity:1" />
      <stop offset="100%" style="stop-color:#0e1b12;stop-opacity:1" />
    </linearGradient>
    
    <!-- Circuit glow effect -->
    <filter id="glow">
      <feGaussianBlur stdDeviation="3" result="coloredBlur"/>
      <feMerge>
        <feMergeNode in="coloredBlur"/>
        <feMergeNode in="SourceGraphic"/>
      </feMerge>
    </filter>
    
    <!-- Pulse effect -->
    <radialGradient id="pulseGradient">
      <stop offset="0%" style="stop-color:#e8c547;stop-opacity:0.8" />
      <stop offset="100%" style="stop-color:#e8c547;stop-opacity:0" />
    </radialGradient>
  </defs>
  
  <rect width="400" height="300" fill="url(#bgGradient)" />
  
  <!-- Circuit board pattern background -->
  <g opacity="0.08">
    <pattern id="circuit" width="40" height="40" patternUnits="userSpaceOnUse">
      <path d="M10,10 L30,10 M20,10 L20,30 M10,30 L30,30" fill="none" stroke="#e8c547" stroke-width="0.5"/>
      <circle cx="10" cy="10" r="2" fill="#e8c547"/>
      <circle cx="30" cy="10" r="2" fill="#e8c547"/>
      <circle cx="20" cy="30" r="2" fill="#e8c547"/>
      <circle cx="10" cy="30" r="2" fill="#e8c547"/>
      <circle cx="30" cy="30" r="2" fill="#e8c547"/>
    </pattern>
    <rect width="400" height="300" fill="url(#circuit)"/>
  </g>
  
  <!-- Main icon container -->
  <g transform="translate(200, 150)">
    <!-- Animated hexagon -->
    <g opacity="0.3">
      <path d="M-50,-29 L-25,-50 L25,-50 L50,-29 L50,29 L25,50 L-25,50 L-50,29 Z" 
        fill="none" stroke="#e8c547" stroke-width="1">
        <animateTransform attributeName="transform" type="rotate" 
          from="0 0 0" to="360 0 0" dur="30s" repeatCount="indefinite"/>
      </path>
    </g>
    
    <!-- Arduino board -->
    <g transform="scale(2.5)" filter="url(#glow)">
      <!-- Board -->
      <rect x="-15" y="-10" width="30" height="20" rx="2" fill="none" stroke="#e8c547" stroke-width="1"/>
      
      <!-- Microcontroller -->
      <rect x="-5" y="-5" width="10" height="10" fill="#e8c547" opacity="0.8"/>
      
      <!-- Pins -->
      <g opacity="0.7">
        <!-- Top pins -->
        <rect x="-12" y="-9" width="1" height="3" fill="#e8c547"/>
        <rect x="-9" y="-9" width="1" height="3" fill="#e8c547"/>
        <rect x="-6" y="-9" width="1" height="3" fill="#e8c547"/>
        <rect x="5" y="-9" width="1" height="3" fill="#e8c547"/>
        <rect x="8" y="-9" width="1" height="3" fill="#e8c547"/>
        <rect x="11" y="-9" width="1" height="3" fill="#e8c547"/>
        
        <!-- Bottom pins -->
        <rect x="-12" y="6" width="1" height="3" fill="#e8c547"/>
        <rect x="-9" y="6" width="1" height="3" fill="#e8c547"/>
        <rect x="-6" y="6" width="1" height="3" fill="#e8c547"/>
        <rect x="5" y="6" width="1" height="3" fill="#e8c547"/>
        <rect x="8" y="6" width="1" height="3" fill="#e8c547"/>
        <rect x="11" y="6" width="1" height="3" fill="#e8c547"/>
      </g>
      
      <!-- LED indicators -->
      <circle cx="10" cy="-5" r="1" fill="#e8c547">
        <animate attributeName="opacity" values="0.3;1;0.3" dur="2s" repeatCount="indefinite"/>
      </circle>
      <circle cx="10" cy="0" r="1" fill="#e8c547">
        <animate attributeName="opacity" values="0.3;1;0.3" dur="2s" begin="0.5s" repeatCount="indefinite"/>
      </circle>
      <circle cx="10" cy="5" r="1" fill="#e8c547">
        <animate attributeName="opacity" values="0.3;1;0.3" dur="2s" begin="1s" repeatCount="indefinite"/>
      </circle>
    </g>
    
    <!-- Signal waves -->
    <g opacity="0.4">
      <path d="M-70,0 Q-60,-10 -50,0 T-30,0" fill="none" stroke="#e8c547" stroke-width="2">
        <animate attributeName="d" 
          values="M-70,0 Q-60,-10 -50,0 T-30,0;
                  M-70,0 Q-60,10 -50,0 T-30,0;
                  M-70,0 Q-60,-10 -50,0 T-30,0" 
          dur="2s" repeatCount="indefinite"/>
      </path>
      <path d="M30,0 Q40,-10 50,0 T70,0" fill="none" stroke="#e8c547" stroke-width="2">
        <animate attributeName="d" 
          values="M30,0 Q40,-10 50,0 T70,0;
                  M30,0 Q40,10 50,0 T70,0;
                  M30,0 Q40,-10 50,0 T70,0" 
          dur="2s" begin="1s" repeatCount="indefinite"/>
      </path>
    </g>
    
    <!-- Floating connection points -->
    <g opacity="0.6">
      <circle cx="-60" cy="-30" r="3" fill="#e8c547">
        <animate attributeName="r" values="3;5;3" dur="3s" repeatCount="indefinite"/>
      </circle>
      <circle cx="60" cy="30" r="3" fill="#e8c547">
        <animate attributeName="r" values="3;5;3" dur="3s" begin="1s" repeatCount="indefinite"/>
      </circle>
      <circle cx="-60" cy="30" r="3" fill="#e8c547">
        <animate attributeName="r" values="3;5;3" dur="3s" begin="2s" repeatCount="indefinite"/>
      </circle>
      <circle cx="60" cy="-30" r="3" fill="#e8c547">
        <animate attributeName="r" values="3;5;3" dur="3s" begin="0.5s" repeatCount="indefinite"/>
      </circle>
    </g>
    
    <!-- Data flow lines -->
    <g opacity="0.2">
      <line x1="-60" y1="-30" x2="-15" y2="-10" stroke="#e8c547" stroke-width="1"/>
      <line x1="60" y1="30" x2="15" y2="10" stroke="#e8c547" stroke-width="1"/>
      <line x1="-60" y1="30" x2="-15" y2="10" stroke="#e8c547" stroke-width="1"/>
      <line x1="60" y1="-30" x2="15" y2="-10" stroke="#e8c547" stroke-width="1"/>
    </g>
  </g>
  
  <!-- Category text -->
  <text x="200" y="260" font-family="Arial, sans-serif" font-size="14" fill="#e8c547" 
    text-anchor="middle" opacity="0.8" letter-spacing="2">IoT / ARDUINO</text>
</svg> 